<?xml version="1.0" encoding="utf-8"?>
<!-- Generator: Adobe Illustrator 27.0.1, SVG Export Plug-In . SVG Version: 6.00 Build 0)  -->
<svg version="1.1" id="Camada_1" xmlns="http://www.w3.org/2000/svg" xmlns:xlink="http://www.w3.org/1999/xlink" x="0px" y="0px"
	 viewBox="0 0 434.8 256.9" style="enable-background:new 0 0 434.8 256.9;" xml:space="preserve">
<style type="text/css">
	.st0{fill-rule:evenodd;clip-rule:evenodd;fill:#969695;}
	.st1{fill-rule:evenodd;clip-rule:evenodd;fill:#A3A3A3;}
	.st2{fill-rule:evenodd;clip-rule:evenodd;fill:#5D5D5D;}
</style>
<path class="st0" d="M375.8,41c-22-17.2-52.7-31.8-102.3-41c-11.8,9-20.1,17.1-28.2,25.2C294.6,21,341.1,21.5,375.8,41L375.8,41z"/>
<path class="st1" d="M204.2,86.3c-9.4,20.2-10.9,42-12.4,64.8c14.2-15.6,28.2-28.5,44.1-40.2C225.2,103.2,214,94.7,204.2,86.3
	L204.2,86.3z"/>
<path class="st1" d="M227.8,45.7c-14.5,3.9-29.3,9.1-44.5,15.6c3.6,6.2,11.7,16.8,20.9,25C209.7,72.2,217.7,57.8,227.8,45.7
	L227.8,45.7z"/>
<path class="st2" d="M405,57.8c-54.4-22.6-112.7-29.7-177.2-12.2c-10,12.2-18,26.5-23.5,40.6v0l0,0l0,0c9.7,8.4,21,16.9,31.6,24.6
	c-0.4,0.3-0.8,0.6-1.1,0.8v0c0.1-0.1,0.2-0.1,0.3-0.2C283.3,75.3,339.7,57.2,405,57.8L405,57.8z"/>
<path class="st0" d="M66.1,148.6c0,7.2-0.2,15.3-0.2,22.5c-3.9-5.2-33-8.2-34.8,5.7c-1.8,14.3,29.6,15.9,39.2,18.1
	c33.2,7.7,42.6,51-3.6,60.2c-27.6,5.5-50-2.6-66.8-15.2c5.7-5.4,11.4-10.8,17-16.2c13.2,12.7,55.8,20.6,53.6,1.5
	c-0.6-4.9-4.2-7.5-8.7-9.3c-11.1-4.4-25.4-5.7-36.6-10.1c-34.7-13.5-22.2-52.3,8.8-57.2C44.2,147,55.9,147.4,66.1,148.6L66.1,148.6z
	"/>
<path class="st0" d="M189,251.6h26.8v-50c0-9.8,8-17.8,17.8-17.8s17.8,8,17.8,17.8v50h26.8v-44.1c0-29-20.1-44.7-44.7-44.7
	S189,177.4,189,207.6V251.6z"/>
<path class="st0" d="M428.6,151.7c2.1,0,4.2,0.1,6.2,0.3v20.5c-0.2,0-0.4,0-0.5,0c-20.2,0-36.5,14.1-36.5,31.5s16.4,31.5,36.5,31.5
	c0.2,0,0.4,0,0.5,0v20.5c-2.1,0.2-4.1,0.3-6.2,0.3c-33.5,0-60.6-23.4-60.6-52.2C368,175.1,395.1,151.7,428.6,151.7L428.6,151.7z"/>
<path class="st0" d="M318.1,184.9c1.9-0.7,3.9-1.1,6-1.1c9.1,0,16.7,6.9,17.7,15.8c-8.9-0.7-23.5-0.6-33.3-0.2
	c-42.8,1.7-40.1,54.6,4.1,53.1c10-0.3,21.9-3.6,29.3-12.6v11.7h26.8v-47.3c0-32.8-20.1-41.4-44.7-41.4c-2,0-4.1,0.1-6,0.3V184.9z
	 M342,213.7c-6-0.6-15.9-0.5-22.6-0.3c-23.8,0.8-20.6,28.1,8.3,22.1c8.4-1.7,13.5-9.4,14.3-15.4V213.7z"/>
<path class="st0" d="M189.6,215.6v-8.1c0-26.9-18.6-44.7-46.9-44.7c-63,0-63,90.3,0,90.3c3,0,5.9-0.2,8.8-0.6v-19.3
	c-13.1,2.2-28.7-3.7-29.1-17.6C145,215.6,167,215.6,189.6,215.6L189.6,215.6z M122.4,201.6c0.6-25.8,41.9-25.5,42,0H122.4z"/>
</svg>
