<?xml version="1.0" encoding="utf-8"?>
<!-- Generator: Adobe Illustrator 27.0.1, SVG Export Plug-In . SVG Version: 6.00 Build 0)  -->
<svg version="1.1" id="Camada_1" xmlns="http://www.w3.org/2000/svg" xmlns:xlink="http://www.w3.org/1999/xlink" x="0px" y="0px"
	 viewBox="0 0 434.83 256.93" style="enable-background:new 0 0 434.83 256.93;" xml:space="preserve">
<style type="text/css">
	.st0{fill-rule:evenodd;clip-rule:evenodd;fill:#05529A;}
	.st1{fill-rule:evenodd;clip-rule:evenodd;fill:#F9B977;}
	.st2{fill-rule:evenodd;clip-rule:evenodd;fill:#F28C24;}
	.st3{fill-rule:evenodd;clip-rule:evenodd;fill:#05559D;}
</style>
<g id="LOGO_00000162314259834783178700000002234389395752829108_">
	<path class="st0" d="M375.83,41.04C353.85,23.89,323.17,9.23,273.48,0c-11.81,9.01-20.11,17.14-28.19,25.22
		C294.6,21.02,341.07,21.46,375.83,41.04L375.83,41.04z M375.83,41.04"/>
	<path class="st1" d="M204.22,86.28c-9.38,20.2-10.94,41.97-12.44,64.79c14.18-15.57,28.2-28.48,44.1-40.19
		C225.2,103.15,213.96,94.7,204.22,86.28L204.22,86.28z M204.22,86.28"/>
	<path class="st1" d="M227.76,45.66c-14.49,3.94-29.31,9.12-44.47,15.65c3.61,6.16,11.72,16.85,20.93,24.97
		C209.72,72.21,217.73,57.84,227.76,45.66L227.76,45.66z M227.76,45.66"/>
	<path class="st2" d="M405.01,57.85c-54.44-22.58-112.66-29.74-177.25-12.19c-10.03,12.18-18.04,26.55-23.54,40.62v0.01l-0.01-0.02
		l0.01,0.01c9.74,8.42,20.98,16.87,31.65,24.61c-0.39,0.28-0.77,0.56-1.15,0.84v0.01c0.09-0.07,0.17-0.13,0.26-0.19
		C283.28,75.34,339.69,57.21,405.01,57.85L405.01,57.85z M405.01,57.85"/>
	<path class="st3" d="M66.14,148.61c0,7.25-0.15,15.27-0.15,22.52c-3.91-5.19-33.01-8.2-34.79,5.73
		c-1.83,14.32,29.63,15.88,39.21,18.09c33.22,7.67,42.57,51.02-3.63,60.24c-27.59,5.5-49.95-2.65-66.77-15.19
		c5.68-5.41,11.35-10.82,17.02-16.23c13.23,12.69,55.76,20.63,53.59,1.47c-0.55-4.87-4.19-7.53-8.74-9.31
		c-11.11-4.35-25.41-5.72-36.63-10.08c-34.65-13.47-22.19-52.34,8.8-57.24C44.23,146.99,55.94,147.44,66.14,148.61L66.14,148.61z
		 M66.14,148.61"/>
	<path class="st3" d="M189,251.63h26.82v-49.96c0-9.81,8.03-17.84,17.84-17.84s17.83,8.03,17.83,17.84v49.96h26.83v-44.07
		c0-28.98-20.09-44.66-44.66-44.66S189,177.41,189,207.57V251.63z M189,251.63"/>
	<path class="st3" d="M428.57,151.68c2.11,0,4.2,0.09,6.25,0.28v20.47c-0.17,0-0.35-0.01-0.53-0.01
		c-20.18,0-36.53,14.09-36.53,31.47c0,17.38,16.35,31.47,36.53,31.47c0.18,0,0.36,0,0.53-0.01v20.47c-2.06,0.18-4.14,0.28-6.25,0.28
		c-33.47,0-60.61-23.37-60.61-52.21C367.96,175.05,395.1,151.68,428.57,151.68L428.57,151.68z M428.57,151.68"/>
	<path class="st3" d="M318.09,184.9c1.89-0.68,3.92-1.06,6.04-1.06c9.12,0,16.7,6.94,17.72,15.8c-8.91-0.7-23.53-0.6-33.33-0.23
		c-42.84,1.66-40.12,54.55,4.15,53.12c9.99-0.31,21.89-3.64,29.3-12.59v11.69h26.82v-47.28c0-32.81-20.09-41.44-44.66-41.44
		c-2.05,0-4.07,0.1-6.04,0.31V184.9z M341.96,213.7c-5.98-0.58-15.86-0.48-22.56-0.26c-23.8,0.79-20.65,28.06,8.28,22.12
		c8.35-1.71,13.5-9.37,14.28-15.42V213.7z M341.96,213.7"/>
	<path class="st3" d="M189.65,215.62v-8.05c0-26.89-18.59-44.66-46.93-44.66c-62.98,0-62.98,90.28,0,90.28c3,0,5.92-0.21,8.77-0.63
		v-19.32c-13.08,2.25-28.71-3.73-29.08-17.63C144.96,215.62,167.03,215.62,189.65,215.62L189.65,215.62z M122.41,201.58
		c0.57-25.78,41.9-25.54,41.99,0H122.41z M122.41,201.58"/>
</g>
</svg>
