<?xml version="1.0" encoding="utf-8"?>
<!-- Generator: Adobe Illustrator 27.0.1, SVG Export Plug-In . SVG Version: 6.00 Build 0)  -->
<svg version="1.1" id="Camada_1" xmlns="http://www.w3.org/2000/svg" xmlns:xlink="http://www.w3.org/1999/xlink" x="0px" y="0px"
	 viewBox="0 0 2751 286" style="enable-background:new 0 0 2751 286;" xml:space="preserve">
<style type="text/css">
	.st0{fill:#312782;}
	.st1{fill:#FFFFFF;}
	.st2{fill:none;stroke:#FFFFFF;stroke-width:1.4598;stroke-miterlimit:10;}
	.st3{fill:none;stroke:#FFFFFF;stroke-width:0.4866;stroke-miterlimit:10;}
	.st4{fill:#333333;}
</style>
<path class="st0" d="M2374.9,161.6l-3.9,1.6L2331.6,73h4.5l36.5,83.3C2373.4,158.1,2374.2,159.9,2374.9,161.6z"/>
<path class="st0" d="M2461.5,73l-42.3,90.3l-3.5-1.7c0.5-1.1,1-2.2,1.6-3.3L2457,73H2461.5z"/>
<rect x="2548.4" y="136.2" class="st0" width="16.3" height="3.7"/>
<polygon class="st0" points="2489.8,107.3 2485.7,107.3 2485.7,73 2580.9,73 2580.9,76.7 2489.8,76.7 "/>
<polygon class="st0" points="2584.6,209.1 2583.6,212.8 2485.7,212.8 2485.7,169.4 2489.8,169.4 2489.8,209.1 "/>
<path class="st0" d="M2635,131.6c5.7,2,12.8,3.7,21.6,5.4c14.3,2.8,24.9,6,32.5,9.8l-1.5,3.7c-7.3-3.7-17.7-6.9-32.2-9.8
	c-8.2-1.6-15.2-3.3-21.2-5.2L2635,131.6z"/>
<path class="st0" d="M2700.5,192.7l3.8,1.8c-8,14.4-26.4,21-47.1,21c-31,0-50.9-13.5-55.8-40.8h4.1c4.1,21.3,20.3,37.1,51.5,37.1
	C2680.1,211.9,2694.3,204.1,2700.5,192.7z"/>
<path class="st0" d="M2618.2,87.8l-3-2.4c8.1-9.9,22.6-15.2,39.3-15.2c39.4,0,48.4,22.8,50.7,35.7h-4.1c-3.7-14.8-13.6-32-46.6-32
	C2640.1,73.9,2625.8,78.2,2618.2,87.8z"/>
<rect x="1809" y="200.7" class="st0" width="4.1" height="12.2"/>
<path class="st0" d="M1812.7,77.5h-0.2c0.7,17.3,0.6,38.4,0.6,61.1h-4.1V73h4.9c7.6,9.4,18.2,22.6,29.8,37l-3.3,2.5
	C1825.9,94.3,1814.8,80.4,1812.7,77.5z"/>
<rect x="1921.2" y="73" class="st0" width="4.1" height="13.1"/>
<path class="st0" d="M1925.3,148.2v64.7h-4.3c-6.9-8.7-17-21.1-28.1-35.1l3.4-2.5c12.4,15.4,21.9,27.4,25.4,31.7h0.2
	c-0.7-8.5-0.6-36.8-0.6-58.8H1925.3z"/>
<path class="st0" d="M2022.4,211.7c0,0.3-0.1,0.6-0.1,0.9c-0.2,1.1-0.5,2.1-0.9,3c-18.9-1.2-34-9-44.6-20.8c2-0.1,3.9-0.2,5.8-0.5
	C1992.6,204.2,2006.1,210.7,2022.4,211.7z"/>
<path class="st0" d="M2048,241.3c0,9.4-7.4,15.8-19.9,15.8c-6.4,0-11.9-1.6-15.4-3.3v-4.3c4.1,2.1,9.6,3.9,15.4,3.9
	c11.7,0,15.4-6,15.4-11.7c0-4.8-2.4-8.6-8-11.3l1-3.7C2043.3,229.5,2048,234.1,2048,241.3z"/>
<path class="st0" d="M2089.3,176.4c-9,23-25.1,37.1-54.9,39.1c0.1-0.3,0.2-0.7,0.2-1.1c0.2-1,0.2-1.9,0.2-2.9
	c26.8-2,41.6-14.9,50.1-35.4L2089.3,176.4z"/>
<path class="st0" d="M2089.3,110.6h-4.3c-6.4-19.7-24.2-36.7-56.8-36.7c-19.8,0-36.5,7.2-48,19.8c-1.6-0.2-3.3-0.2-4.9-0.2h-0.2
	c12.3-14.6,30.7-23.3,53.1-23.3C2063.2,70.2,2082.5,87.6,2089.3,110.6z"/>
<path class="st0" d="M2203.5,148.1l5.3,12.4l-3.9,1.4l-1.9-4.4h-68.5l-24,55.4h-4.3L2167.4,73h3.7l4.6,10.7L2172,85
	c-1.3-3.2-2.2-5.5-2.7-7.1h-0.2c-1.6,4.7-16.2,37.7-32.8,75.9h65.2c-0.6-1.4-1.2-2.9-1.8-4.3L2203.5,148.1z"/>
<polygon class="st0" points="2231.5,212.8 2227.1,212.8 2225.6,209.5 2229.5,208.1 "/>
<rect x="2257.1" y="73" class="st0" width="4.1" height="81.8"/>
<rect x="2309.7" y="209.1" class="st0" width="17" height="3.7"/>
<path class="st0" d="M1399.2,141.6c0,21.2-7,40.1-19.8,53.5c-0.2-1.8-0.5-3.5-0.9-5.2c10.4-12.1,16.4-28.7,16.4-47.9
	c0-36.7-27.1-68.1-65.9-68.1c-36.9,0-66.5,29.8-66.5,68.7c0,18.1,6.2,35.1,17.4,47.8c-0.4,1.8-0.7,3.6-0.9,5.4
	c-13.1-13.1-20.8-31.9-20.8-53c0-39.2,29.1-72.6,71-72.6C1369.4,70.2,1399.2,101.6,1399.2,141.6z"/>
<path class="st0" d="M1775.9,141.6c0,41.4-26.5,73.9-70.8,73.9c-41.6,0-70.2-31.8-70.2-72.7c0-19.8,7.4-38.1,20.1-51.3
	c-0.1,1.3-0.2,2.6-0.2,3.9c0,0.8,0,1.6,0.1,2.4c-9.8,11.9-15.7,27.4-15.7,44.8c0,36.7,25.7,69.3,66.1,69.3
	c38.8,0,66.3-28.7,66.3-69.8c0-16.8-5.7-32.5-15.6-44.5c0-0.7,0-1.4,0-2.1c0-1.5-0.1-3.1-0.2-4.6
	C1768.4,103.7,1775.9,121.6,1775.9,141.6z"/>
<path class="st0" d="M971.9,141.9c0,41.4-26.5,73.9-70.8,73.9c-41.5,0-70.2-31.8-70.2-72.8c0-20,7.5-38.4,20.5-51.7
	c-0.1,1.3-0.2,2.7-0.2,4c0,0.8,0,1.5,0.1,2.3c-10,11.9-16.1,27.7-16.1,45.2c0,36.7,25.7,69.3,66.1,69.3c38.8,0,66.3-28.7,66.3-69.8
	c0-16.6-5.6-32.1-15.2-44.1c0.1-0.9,0.1-1.8,0.1-2.8c0-1.3,0-2.5-0.1-3.8C964.6,104.5,971.9,122.2,971.9,141.9z"/>
<path class="st0" d="M1014.5,186.8c-0.8,1.7-1.5,3.5-2,5.3c-5.6-9.5-8.6-21.8-8.6-37V73h4.1v81.1
	C1007.9,167.9,1010.4,178.6,1014.5,186.8z"/>
<path class="st0" d="M1116.4,73v80c0,16.2-2.8,28.8-8,38.3c-0.6-1.7-1.2-3.3-2-4.9c3.8-8.4,5.9-19.1,5.9-32.6V73H1116.4z"/>
<rect x="1138.8" y="73" class="st0" width="41.3" height="3.7"/>
<rect x="1194.4" y="102.3" class="st0" width="4.1" height="110.5"/>
<rect x="1214" y="73" class="st0" width="40.1" height="3.7"/>
<path class="st0" d="M578.3,147.3l5.3,12.4l-3.9,1.4l-1.6-3.7h-68.5l-24,55.4h-4.3L542.5,73h3.7l4.3,10l-3.7,1.3
	c-1.2-2.8-1.9-4.9-2.4-6.4h-0.2c-1.5,4.7-16.2,37.6-32.8,75.9h65.2c-0.7-1.7-1.4-3.4-2.1-5L578.3,147.3z"/>
<polygon class="st0" points="604.3,207.4 606.7,212.8 602.2,212.8 600.4,208.8 "/>
<path class="st0" d="M803.5,176.2l4.3,0.2c-9.8,25-27.9,39.4-62.6,39.4c-21.4,0-38.3-8-49.9-21c2,0,3.9-0.2,5.9-0.4
	c10.9,10.9,26,17.5,44.4,17.5C777.3,211.9,794.1,198.6,803.5,176.2z"/>
<path class="st0" d="M698.8,93.7c-1.4-0.1-2.9-0.2-4.4-0.2c-0.2,0-0.5,0-0.7,0c12.2-14.7,30.6-23.3,53.1-23.3
	c34.9,0,54.2,17.4,61.1,40.4h-4.3c-6.4-19.7-24.2-36.7-56.8-36.7C726.9,73.9,710.3,81.2,698.8,93.7z"/>
<rect x="291.2" y="73" class="st0" width="4.1" height="34.3"/>
<rect x="291.2" y="169.4" class="st0" width="4.1" height="43.4"/>
<rect x="339.4" y="200.7" class="st0" width="4.1" height="12.2"/>
<path class="st0" d="M344.3,73c7.7,9.5,18.4,22.9,30.2,37.5l-3.3,2.5c-14.7-18.4-26-32.5-28.1-35.5h-0.2c0.7,17.3,0.6,38.4,0.6,61.1
	h-4.1V73H344.3z"/>
<polygon class="st0" points="375.1,139.9 375.2,139.9 375.1,139.9 "/>
<rect x="451.6" y="73" class="st0" width="4.1" height="13.1"/>
<path class="st0" d="M451.6,148.2h4.1v64.7h-4.3c-6.8-8.6-16.7-20.8-27.7-34.5l3.4-2.5c12.1,15.1,21.6,26.9,24.9,31.2h0.2
	C451.5,198.5,451.6,170.1,451.6,148.2z"/>
<path class="st0" d="M236.8,147.9l5.4,12.4l-3.9,1.4l-1.8-4.2H168l-24,55.4h-4.3L200.7,73h3.7l4.5,10.5l-3.7,1.3
	c-1.3-3.1-2.1-5.4-2.6-6.9h-0.2c-1.6,4.7-16.2,37.7-32.8,75.9h65.2c-0.6-1.5-1.3-3-1.9-4.4L236.8,147.9z"/>
<polygon class="st0" points="264.9,212.8 260.4,212.8 258.9,209.3 262.8,207.9 "/>
<rect x="40" y="73" class="st0" width="40.3" height="3.7"/>
<rect x="95.6" y="102.3" class="st0" width="4.1" height="110.5"/>
<rect x="114.1" y="73" class="st0" width="41.1" height="3.7"/>
<rect x="40" y="73" class="st1" width="40.3" height="3.7"/>
<rect x="95.6" y="102.3" class="st1" width="4.1" height="110.5"/>
<rect x="114.1" y="73" class="st1" width="41.1" height="3.7"/>
<path class="st1" d="M262.8,207.9l-3.9,1.4l1.5,3.5h4.5L262.8,207.9z M233,149.3c0.6,1.5,1.3,2.9,1.9,4.4h-65.2
	c16.6-38.2,31.2-71.2,32.8-75.9h0.2c0.5,1.5,1.3,3.8,2.6,6.9l3.7-1.3L204.4,73h-3.7l-61.1,139.9h4.3l24-55.4h68.5l1.8,4.2l3.9-1.4
	l-5.4-12.4L233,149.3z"/>
<rect x="291.2" y="73" class="st1" width="4.1" height="34.3"/>
<rect x="291.2" y="169.4" class="st1" width="4.1" height="43.4"/>
<rect x="339.4" y="200.7" class="st1" width="4.1" height="12.2"/>
<path class="st1" d="M344.3,73c7.7,9.5,18.4,22.9,30.2,37.5l-3.3,2.5c-14.7-18.4-26-32.5-28.1-35.5h-0.2c0.7,17.3,0.6,38.4,0.6,61.1
	h-4.1V73H344.3z"/>
<rect x="451.6" y="73" class="st1" width="4.1" height="13.1"/>
<path class="st1" d="M451.6,148.2h4.1v64.7h-4.3c-6.8-8.6-16.7-20.8-27.7-34.5l3.4-2.5c12.1,15.1,21.6,26.9,24.9,31.2h0.2
	C451.5,198.5,451.6,170.1,451.6,148.2z"/>
<path class="st1" d="M604.3,207.4l-3.9,1.4l1.8,4.1h4.5L604.3,207.4z M574.5,148.7c0.7,1.6,1.4,3.3,2.1,5h-65.2
	c16.6-38.2,31.2-71.2,32.8-75.9h0.2c0.4,1.4,1.2,3.5,2.4,6.4l3.7-1.3l-4.3-10h-3.7l-61.1,139.9h4.3l24-55.4h68.5l1.6,3.7l3.9-1.4
	l-5.3-12.4L574.5,148.7z"/>
<polygon class="st1" points="580.5,31.6 548.1,58.5 542.8,58.5 574.4,31.6 "/>
<path class="st1" d="M803.5,176.2l4.3,0.2c-9.8,25-27.9,39.4-62.6,39.4c-21.4,0-38.3-8-49.9-21c2,0,3.9-0.2,5.9-0.4
	c10.9,10.9,26,17.5,44.4,17.5C777.3,211.9,794.1,198.6,803.5,176.2z"/>
<path class="st1" d="M698.8,93.7c-1.4-0.1-2.9-0.2-4.4-0.2c-0.2,0-0.5,0-0.7,0c12.2-14.7,30.6-23.3,53.1-23.3
	c34.9,0,54.2,17.4,61.1,40.4h-4.3c-6.4-19.7-24.2-36.7-56.8-36.7C726.9,73.9,710.3,81.2,698.8,93.7z"/>
<path class="st1" d="M952.3,91.6c0.1,1.2,0.1,2.5,0.1,3.8c0,0.9,0,1.9-0.1,2.8c9.7,12,15.2,27.5,15.2,44.1
	c0,41.2-27.5,69.8-66.3,69.8c-40.4,0-66.1-32.6-66.1-69.3c0-17.5,6.1-33.3,16.1-45.2c0-0.7-0.1-1.5-0.1-2.3c0-1.4,0.1-2.7,0.2-4
	c-13,13.3-20.5,31.8-20.5,51.7c0,41,28.7,72.8,70.2,72.8c44.3,0,70.8-32.6,70.8-73.9C971.9,122.2,964.6,104.5,952.3,91.6z"/>
<path class="st1" d="M1014.5,186.8c-0.8,1.7-1.5,3.5-2,5.3c-5.6-9.5-8.6-21.8-8.6-37V73h4.1v81.1
	C1007.9,167.9,1010.4,178.6,1014.5,186.8z"/>
<path class="st1" d="M1116.4,73v80c0,16.2-2.8,28.8-8,38.3c-0.6-1.7-1.2-3.3-2-4.9c3.8-8.4,5.9-19.1,5.9-32.6V73H1116.4z"/>
<rect x="1138.8" y="73" class="st1" width="41.3" height="3.7"/>
<rect x="1194.4" y="102.3" class="st1" width="4.1" height="110.5"/>
<rect x="1214" y="73" class="st1" width="40.1" height="3.7"/>
<path class="st1" d="M1329.2,70.2c-41.9,0-71,33.4-71,72.6c0,21.2,7.7,39.9,20.8,53c0.2-1.8,0.5-3.6,0.9-5.4
	c-11.2-12.7-17.4-29.7-17.4-47.8c0-38.8,29.6-68.7,66.5-68.7c38.8,0,65.9,31.4,65.9,68.1c0,19.3-6,35.8-16.4,47.9
	c0.4,1.7,0.7,3.4,0.9,5.2c12.8-13.4,19.8-32.3,19.8-53.5C1399.2,101.6,1369.4,70.2,1329.2,70.2z"/>
<g>
	<path class="st1" d="M1584,143.7l24.2,0c0.8,0,1.7,0.4,2.4,1c0.7,0.7,1.1,1.5,1.1,2.3l0,0.1l0,0l0,0.2l0,0.1l0,0l0,0.1h1.9
		l-1.5-1.2c-0.3,0.4-0.4,0.8-0.4,1.2h1.9l-1.5-1.2l1.5,1.2l-0.8-1.7c-0.2,0.1-0.5,0.3-0.7,0.6l1.5,1.2l-0.8-1.7l0.8,1.7l-0.2-1.9
		c-0.1,0-0.3,0-0.6,0.2l0.8,1.7l-0.2-1.9l0.2,1.9v-1.9c0,0,0,0-0.2,0l0.2,1.9v-1.9c-0.5,0-1,0.2-1.3,0.5c-0.3,0.3-0.5,0.8-0.5,1.3
		c0,0.5,0.2,1,0.5,1.3c0.3,0.3,0.8,0.5,1.3,0.5c0.4,0,0.8-0.2,1-0.3c0.2-0.2,0.4-0.3,0.4-0.4c0.2-0.2,0.2-0.3,0.3-0.4
		c0.1-0.2,0.1-0.2,0.1-0.3l0-0.2l0-0.1l0-0.1l0-0.2l0-0.1l0-0.1h-1.9l1.9,0.1c0-0.1,0-0.2,0-0.3l0-0.1l0,0l0,0
		c0-0.3-0.1-0.6-0.2-0.8c-0.2-0.3-0.3-0.5-0.4-0.6c-0.2-0.2-0.2-0.2-0.3-0.3l-0.2-0.1c-0.6-0.3-1.3-0.3-1.8,0.1
		c-0.5,0.3-0.9,0.9-0.9,1.6c0,0,0,0.2,0,0.4l0,0.3l0,0.1l0,0.1c0,0.1,0,0.3,0.1,0.5c0.2,0.8,1,1.4,1.8,1.4c0.3,0,0.6-0.1,0.8-0.2
		c0.4-0.2,0.6-0.5,0.7-0.6c0.2-0.3,0.2-0.4,0.3-0.5c0.1-0.2,0.1-0.2,0.1-0.3c0-0.1,0-0.1,0-0.2l0-0.1c0-0.1,0-0.2,0-0.3
		c0-0.5-0.2-1-0.5-1.3c-0.3-0.4-0.8-0.6-1.3-0.6c-0.5,0-1,0.2-1.3,0.5c-0.4,0.3-0.6,0.8-0.6,1.3c-0.2,7.2-1.5,13-3.6,18.4
		c-2.2,5.4-5.3,10.4-9.4,15.8c-12.1,16-31.2,26.4-52.8,26.4c-21.6,0-40.8-10.4-52.9-26.4c-8-10.7-12.9-23.9-13.2-38.3l0,0
		c0-0.2,0-0.3,0-0.5v0l0-0.2l-1.9,0h1.9l0-0.2l0,0v0l0,0l0-0.1l0-0.2l0-0.1l0,0l-1.1,0.1l1.1-0.1l0,0l-1.1,0.1l1.1-0.1l-1.8,0.1
		l1.8,0l0-0.1l-1.8,0.1l1.8,0l0,0c0-0.3,0-0.5,0-0.8c0-11.2,3.7-21.4,7.4-28.8c1.8-3.7,3.7-6.7,5.1-8.8c0.7-1,1.3-1.8,1.7-2.4
		c0.2-0.3,0.4-0.5,0.5-0.6l0.1-0.1l0,0l0,0c3-3.8,13.5-15.9,31.7-21.5c7.9-2.5,14.9-3,19.6-3l0,0h0h1.3c18.2,0,34.8,7.4,46.7,19.3
		c0.8,0.8,2.6,2.6,4.7,5.2c0.7,0.8,1.8,0.9,2.6,0.3c0.8-0.7,0.9-1.8,0.3-2.6c-2.2-2.7-4-4.6-4.9-5.5c-12.6-12.6-30.1-20.4-49.4-20.4
		h-1.3h0l-0.1,0c-5,0-12.4,0.5-20.8,3.2c-19.2,6-30.2,18.7-33.5,22.8c-0.1,0.1-3.9,4.9-7.8,12.6c-3.9,7.7-7.7,18.5-7.8,30.5
		c0,0.3,0,0.6,0,0.8l1.9,0h-1.9l0,0.1l0,0l0,0.1l0,0l1.9,0l-1.9-0.1l0,0.2l0,0.2v0l0,0.2l1.9,0h-1.9c0,0.2,0,0.4,0,0.6l1.9-0.1
		l-1.9,0c0.3,15.1,5.4,29.1,13.9,40.4c12.7,17,33,27.9,55.9,27.9c22.8,0,43.1-11,55.8-27.9c4.2-5.6,7.5-10.9,9.9-16.7
		c2.3-5.8,3.6-12.1,3.9-19.7c0-1-0.8-1.9-1.8-1.9c-1,0-1.9,0.8-1.9,1.8c0,0.1,0,0.2,0,0.3l0,0l0.9,0l-0.9-0.1l0,0l0.9,0l-0.9-0.1
		l1.8,0.1l-1.8-0.2l0,0.1l1.8,0.1l-1.8-0.2l1.9,0.2l-1.8-0.3l0,0.1l1.9,0.2l-1.8-0.3l1.9,0.3l-1.8-0.5c0,0.1,0,0.2,0,0.2l1.9,0.3
		l-1.8-0.5l1.8,0.5l-1.7-0.9c-0.1,0.2-0.1,0.3-0.2,0.4l1.8,0.5l-1.7-0.9l1.7,0.9l-1.3-1.4c-0.2,0.2-0.3,0.4-0.4,0.5l1.7,0.9
		l-1.3-1.4l1.3,1.4l-0.8-1.7c-0.2,0.1-0.4,0.2-0.5,0.3l1.3,1.4l-0.8-1.7l0.8,1.7v-1.9c-0.3,0-0.6,0.1-0.8,0.2l0.8,1.7v-1.9v1.9
		l1.8-0.5l-1.8,0.5l1.9,0c0-0.1,0-0.3-0.1-0.5l-1.8,0.5l1.9,0l0,0c0-0.2,0-0.7,0-0.7l-1.9-0.1l-0.8,1.7l0.8-1.7l-1.1,1.5
		c0.2,0.1,0.2,0.1,0.3,0.2l0.8-1.7l-1.1,1.5l1.1-1.5l-1.5,1.2c0.2,0.2,0.3,0.3,0.3,0.3l1.1-1.5l-1.5,1.2l1.5-1.2l-1.7,0.8
		c0.1,0.2,0.2,0.3,0.2,0.4l1.5-1.2l-1.7,0.8l1.7-0.8h-1.9c0,0.3,0.1,0.6,0.2,0.8l1.7-0.8h-1.9h1.8l-1.8,0l0,0h1.8l-1.8,0l0,0
		c0,0,0,0.1,0,0.3l0,0.1h1.6l-1.6,0l0,0h1.6l-1.6,0l0,0l0,0.1l0,0.1l0,0l1.4,0.1l-1.4-0.1l0,0l1.4,0.1l-1.4-0.1l1.8,0.1l-1.8-0.2
		l0,0l1.8,0.1l-1.8-0.2l1.9,0.2l-1.8-0.3l0,0.1l1.9,0.2l-1.8-0.3l1.9,0.3l-1.8-0.5c0,0.1,0,0.2,0,0.2l1.9,0.3l-1.8-0.5l1.8,0.5
		l-1.7-0.8c-0.1,0.2-0.1,0.3-0.1,0.3l1.8,0.5l-1.7-0.8l1.7,0.8l-1.4-1.3c-0.2,0.2-0.3,0.4-0.3,0.5l1.7,0.8l-1.4-1.3l1.4,1.3
		l-0.9-1.6c-0.2,0.1-0.4,0.3-0.5,0.4l1.4,1.3l-0.9-1.6l0.9,1.6v-1.9c-0.4,0-0.7,0.1-0.9,0.2l0.9,1.6v-1.9c-0.5,0-1,0.2-1.3,0.5
		c-0.3,0.3-0.5,0.8-0.5,1.3c0,0.5,0.2,1,0.5,1.3c0.3,0.3,0.8,0.5,1.3,0.5l0.1,0c0.1,0,0.2,0,0.3,0c0.2-0.1,0.6-0.2,0.9-0.5
		c0.2-0.2,0.3-0.4,0.4-0.7c0.1-0.2,0.1-0.5,0.1-0.6h-1.8l1.7,0.1l0-0.1h-1.8l1.7,0.1c0,0,0-0.1,0-0.3l0,0l0-0.3c0-2-0.9-3.7-2.2-5
		c-1.3-1.3-3.1-2.1-5-2.1l-24.2,0c-1,0-1.9,0.8-1.9,1.9C1582.1,142.9,1582.9,143.7,1584,143.7L1584,143.7z"/>
</g>
<path class="st1" d="M1755.8,90.8c0.1,1.5,0.2,3,0.2,4.6c0,0.7,0,1.4,0,2.1c9.9,12.1,15.6,27.8,15.6,44.5
	c0,41.2-27.5,69.8-66.3,69.8c-40.4,0-66.1-32.6-66.1-69.3c0-17.3,5.9-32.9,15.7-44.8c0-0.8-0.1-1.6-0.1-2.4c0-1.3,0.1-2.6,0.2-3.9
	c-12.7,13.3-20.1,31.6-20.1,51.3c0,41,28.7,72.7,70.2,72.7c44.3,0,70.8-32.6,70.8-73.9C1775.9,121.6,1768.4,103.7,1755.8,90.8z"/>
<path class="st1" d="M2036.5,226.7l-1,3.7c5.6,2.6,8,6.5,8,11.3c0,5.7-3.7,11.7-15.4,11.7c-5.8,0-11.3-1.7-15.4-3.9v4.3
	c3.5,1.8,9,3.3,15.4,3.3c12.5,0,19.9-6.4,19.9-15.8C2048,234.1,2043.3,229.5,2036.5,226.7z M2085,176.2
	c-8.6,20.5-23.3,33.4-50.1,35.4c0,0.9-0.1,1.9-0.2,2.9c0,0.4-0.1,0.7-0.2,1.1c29.7-2,45.9-16.1,54.9-39.1L2085,176.2z M1982.7,194.2
	c-1.9,0.3-3.8,0.4-5.8,0.5c10.6,11.9,25.7,19.6,44.6,20.8c0.4-0.9,0.7-1.9,0.9-3c0.1-0.3,0.1-0.6,0.1-0.9
	C2006.1,210.7,1992.6,204.2,1982.7,194.2z M2028.3,70.2c-22.4,0-40.8,8.6-53.1,23.3h0.2c1.7,0,3.3,0.1,4.9,0.2
	c11.5-12.6,28.1-19.8,48-19.8c32.6,0,50.3,17,56.8,36.7h4.3C2082.5,87.6,2063.2,70.2,2028.3,70.2z"/>
<path class="st1" d="M2229.5,208.1l-3.9,1.4l1.4,3.4h4.5L2229.5,208.1z M2199.7,149.4c0.6,1.4,1.2,2.8,1.8,4.3h-65.2
	c16.6-38.2,31.2-71.2,32.8-75.9h0.2c0.5,1.6,1.4,3.9,2.7,7.1l3.7-1.3l-4.6-10.7h-3.7l-61.1,139.9h4.3l24-55.4h68.5l1.9,4.4l3.9-1.4
	l-5.3-12.4L2199.7,149.4z"/>
<rect x="2257.1" y="73" class="st1" width="4.1" height="81.8"/>
<polygon class="st1" points="2347.8,209.1 2346.8,212.8 2309.7,212.8 2309.7,209.1 "/>
<path class="st1" d="M2374.9,161.6l-3.9,1.6L2331.6,73h4.5l36.5,83.3C2373.4,158.1,2374.2,159.9,2374.9,161.6z"/>
<path class="st1" d="M2461.5,73l-42.3,90.3l-3.5-1.7c0.5-1.1,1-2.2,1.6-3.3L2457,73H2461.5z"/>
<rect x="2548.4" y="136.2" class="st1" width="16.3" height="3.7"/>
<polygon class="st1" points="2489.8,107.3 2485.7,107.3 2485.7,73 2580.9,73 2580.9,76.7 2489.8,76.7 "/>
<polygon class="st1" points="2584.6,209.1 2583.6,212.8 2485.7,212.8 2485.7,169.4 2489.8,169.4 2489.8,209.1 "/>
<path class="st1" d="M2635,131.6c5.7,2,12.8,3.7,21.6,5.4c14.3,2.8,24.9,6,32.5,9.8l-1.5,3.7c-7.3-3.7-17.7-6.9-32.2-9.8
	c-8.2-1.6-15.2-3.3-21.2-5.2L2635,131.6z"/>
<path class="st1" d="M2700.5,192.7l3.8,1.8c-8,14.4-26.4,21-47.1,21c-31,0-50.9-13.5-55.8-40.8h4.1c4.1,21.3,20.3,37.1,51.5,37.1
	C2680.1,211.9,2694.3,204.1,2700.5,192.7z"/>
<path class="st1" d="M2618.2,87.8l-3-2.4c8.1-9.9,22.6-15.2,39.3-15.2c39.4,0,48.4,22.8,50.7,35.7h-4.1c-3.7-14.8-13.6-32-46.6-32
	C2640.1,73.9,2625.8,78.2,2618.2,87.8z"/>
<path class="st2" d="M182.5,144c6.9-16.2,13.8-32.4,20.7-48.5"/>
<path class="st2" d="M556.3,57.3c6.9-6,13.7-12.1,20.6-18.1"/>
<path class="st2" d="M155.7,207.9c2.3-5.3,15.3-36.2,17.6-41.6"/>
<path class="st2" d="M523.7,142.7c6.9-16.2,13.8-32.4,20.7-48.5"/>
<path class="st2" d="M496.9,206.6c2.3-5.3,15.3-36.2,17.6-41.6"/>
<path class="st2" d="M2148.4,144c6.9-16.2,13.8-32.4,20.7-48.5"/>
<path class="st2" d="M2121.6,207.9c2.3-5.3,15.3-36.2,17.6-41.6"/>
<line class="st2" x1="300.7" y1="172.9" x2="300.7" y2="206.5"/>
<line class="st2" x1="300.7" y1="76.7" x2="300.7" y2="102.9"/>
<line class="st2" x1="348.6" y1="91.7" x2="348.6" y2="136.7"/>
<line class="st2" x1="461.1" y1="151.7" x2="461.1" y2="210.3"/>
<line class="st2" x1="104.9" y1="107.9" x2="104.9" y2="207.1"/>
<path class="st2" d="M150.7,80.9c-17.4,0-15.7,0-33.1,0"/>
<line class="st2" x1="1204.7" y1="107.9" x2="1204.7" y2="207.1"/>
<path class="st2" d="M1250.5,82.2c-17.4,0-15.7,0-33.1,0"/>
<line class="st2" x1="2270.7" y1="154.8" x2="2270.7" y2="80.9"/>
<path class="st2" d="M2322.9,199.6c-4.4,0-8.8,0-13.2,0"/>
<path class="st2" d="M2549.1,202.1c-17.4,0-34.8,0-52.2,0v-31"/>
<path class="st2" d="M2549.1,83.5c-17.4,0-34.8,0-52.2,0V106"/>
<circle class="st1" cx="293.2" cy="36.8" r="4"/>
<path class="st2" d="M286.4,34.9c0-3.8,3.1-6.9,6.9-6.9s6.9,3.1,6.9,6.9"/>
<polygon class="st3" points="375.2,139.9 375.1,139.9 375.1,139.9 "/>
<path class="st2" d="M2694,192.9c-4.6,3.6-18.7,13.5-38.3,12.8c-6.1-0.2-21.8-0.8-33.3-12.9c-5.9-6.3-8.5-13.2-9.6-17.4"/>
<path class="st2" d="M2622.6,90.7c6.1-7.1,17.4-11.6,34.1-11.6c21.5,0,35.6,10.2,39.2,26.9"/>
<path class="st2" d="M2439.7,96c-10.1,20.8-20.3,41.6-30.4,62.5"/>
<path class="st2" d="M2381.9,158.6c-9.1-21.3-18.2-42.6-27.2-63.8"/>
<path class="st4" d="M1925.3,148.2v3.2c-0.2-1.1-0.3-2.1-0.4-3.2H1925.3z"/>
<path class="st2" d="M842,143.2c0-32.8,26.6-59.4,59.4-59.4s59.4,26.6,59.4,59.4"/>
<path class="st2" d="M742.5,202.9c-28.7,0-52-26.6-52-59.4s23.3-59.4,52-59.4"/>
<path class="st2" d="M1388.2,143.8c0,32.8-26.6,59.4-59.4,59.4s-59.4-26.6-59.4-59.4"/>
<path class="st2" d="M1517.3,194.8c-28.7-15.8-39.1-52-23.3-80.7c15.8-28.7,52-39.1,80.7-23.3"/>
<path class="st2" d="M1645.6,143.2c0-32.8,26.6-59.4,59.4-59.4s59.4,26.6,59.4,59.4"/>
<rect x="1809" y="200.7" class="st1" width="4.1" height="12.2"/>
<path class="st1" d="M1812.7,77.5h-0.2c0.7,17.3,0.6,38.4,0.6,61.1h-4.1V73h4.9c7.6,9.4,18.2,22.6,29.8,37l-3.3,2.5
	C1825.9,94.3,1814.8,80.4,1812.7,77.5z"/>
<rect x="1921.2" y="73" class="st1" width="4.1" height="13.1"/>
<path class="st1" d="M1925.3,148.2v64.7h-4.3c-6.9-8.7-17-21.1-28.1-35.1l3.4-2.5c12.4,15.4,21.9,27.4,25.4,31.7h0.2
	c-0.7-8.5-0.6-36.8-0.6-58.8H1925.3z"/>
<path class="st2" d="M2030.9,202.9c-32.8,0-59.4-26.6-59.4-59.4s26.6-59.4,59.4-59.4"/>
<path class="st2" d="M1105.7,143.8c0,32.8-10.2,59.4-45.4,59.4c-34.8,0-45.4-26.6-45.4-59.4"/>
<line class="st2" x1="1817.1" y1="91.7" x2="1817.1" y2="136.7"/>
<line class="st2" x1="1929.6" y1="151.7" x2="1929.6" y2="210.3"/>
</svg>
